<mxfile host="65bd71144e">
    <diagram id="_AJ6bj0YqRFi8fUkoViV" name="Page-1">
        <mxGraphModel dx="1868" dy="718" grid="1" gridSize="10" guides="1" tooltips="1" connect="1" arrows="1" fold="1" page="1" pageScale="1" pageWidth="850" pageHeight="1100" math="0" shadow="0">
            <root>
                <mxCell id="0"/>
                <mxCell id="1" parent="0"/>
                <mxCell id="9" value="&lt;font&gt;Email&lt;/font&gt;" style="html=1;overflow=block;blockSpacing=1;whiteSpace=wrap;fontSize=20;spacing=9;strokeOpacity=100;rounded=1;absoluteArcSize=1;arcSize=9;strokeWidth=NaN;lucidId=.CLh_E8dGPJD;shadow=1;fontStyle=0;fontColor=#000000;" parent="1" vertex="1">
                    <mxGeometry x="692" y="352" width="130" height="40" as="geometry"/>
                </mxCell>
                <mxCell id="10" value="&lt;font&gt;password&lt;/font&gt;" style="html=1;overflow=block;blockSpacing=1;whiteSpace=wrap;fontSize=20;spacing=9;strokeOpacity=100;rounded=1;absoluteArcSize=1;arcSize=9;strokeWidth=NaN;lucidId=.CLh_E8dGPJD;shadow=1;fontStyle=0;fontColor=#000000;" parent="1" vertex="1">
                    <mxGeometry x="822" y="352" width="120" height="40" as="geometry"/>
                </mxCell>
                <mxCell id="71" value="ID" style="html=1;overflow=block;blockSpacing=1;whiteSpace=wrap;fontSize=20;spacing=9;strokeOpacity=100;rounded=1;absoluteArcSize=1;arcSize=9;strokeWidth=NaN;lucidId=.CLh_E8dGPJD;shadow=1;fontStyle=0;fontColor=#000000;" parent="1" vertex="1">
                    <mxGeometry x="195.5" y="205" width="120" height="45" as="geometry"/>
                </mxCell>
                <mxCell id="73" value="Date" style="html=1;overflow=block;blockSpacing=1;whiteSpace=wrap;fontSize=20;spacing=9;strokeOpacity=100;rounded=1;absoluteArcSize=1;arcSize=9;strokeWidth=NaN;lucidId=.CLh_E8dGPJD;shadow=1;fontStyle=0;fontColor=#000000;" parent="1" vertex="1">
                    <mxGeometry x="317.5" y="205" width="120" height="45" as="geometry"/>
                </mxCell>
                <mxCell id="74" value="Location" style="html=1;overflow=block;blockSpacing=1;whiteSpace=wrap;fontSize=20;spacing=9;strokeOpacity=100;rounded=1;absoluteArcSize=1;arcSize=9;strokeWidth=NaN;lucidId=.CLh_E8dGPJD;shadow=1;fontStyle=0;fontColor=#000000;" parent="1" vertex="1">
                    <mxGeometry x="437.5" y="205" width="120" height="45" as="geometry"/>
                </mxCell>
                <mxCell id="91" value="&lt;span style=&quot;text-decoration-line: underline;&quot;&gt;ID&lt;/span&gt;" style="html=1;overflow=block;blockSpacing=1;whiteSpace=wrap;fontSize=20;spacing=9;strokeOpacity=100;rounded=1;absoluteArcSize=1;arcSize=9;strokeWidth=NaN;lucidId=.CLh_E8dGPJD;shadow=1;fontStyle=0;fontColor=#000000;" parent="1" vertex="1">
                    <mxGeometry x="330" y="351" width="120" height="41" as="geometry"/>
                </mxCell>
                <mxCell id="92" value="&lt;span style=&quot;&quot;&gt;FName&lt;/span&gt;" style="html=1;overflow=block;blockSpacing=1;whiteSpace=wrap;fontSize=20;spacing=9;strokeOpacity=100;rounded=1;absoluteArcSize=1;arcSize=9;strokeWidth=NaN;lucidId=.CLh_E8dGPJD;shadow=1;fontStyle=0;fontColor=#000000;" parent="1" vertex="1">
                    <mxGeometry x="450" y="351" width="120" height="41" as="geometry"/>
                </mxCell>
                <mxCell id="98" value="&lt;font&gt;&lt;span&gt;Admin&lt;/span&gt;&lt;/font&gt;" style="text;html=1;align=center;verticalAlign=middle;resizable=0;points=[];autosize=1;strokeColor=none;fillColor=none;fontSize=20;fontStyle=0;fontColor=#000000;" parent="1" vertex="1">
                    <mxGeometry x="350" y="314" width="80" height="40" as="geometry"/>
                </mxCell>
                <mxCell id="101" style="edgeStyle=none;html=1;entryX=1.061;entryY=0.887;entryDx=0;entryDy=0;exitX=0.25;exitY=1;exitDx=0;exitDy=0;entryPerimeter=0;fontSize=20;fontStyle=0;fontColor=#000000;" parent="1" source="99" target="98" edge="1">
                    <mxGeometry relative="1" as="geometry"/>
                </mxCell>
                <mxCell id="99" value="Admin_ID" style="html=1;overflow=block;blockSpacing=1;whiteSpace=wrap;fontSize=20;spacing=9;strokeOpacity=100;rounded=1;absoluteArcSize=1;arcSize=9;strokeWidth=NaN;lucidId=.CLh_E8dGPJD;shadow=1;fontStyle=0;fontColor=#000000;" parent="1" vertex="1">
                    <mxGeometry x="557.5" y="205" width="120" height="45" as="geometry"/>
                </mxCell>
                <mxCell id="102" value="&lt;span style=&quot;&quot;&gt;LName&lt;/span&gt;" style="html=1;overflow=block;blockSpacing=1;whiteSpace=wrap;fontSize=20;spacing=9;strokeOpacity=100;rounded=1;absoluteArcSize=1;arcSize=9;strokeWidth=NaN;lucidId=.CLh_E8dGPJD;shadow=1;fontStyle=0;fontColor=#000000;" parent="1" vertex="1">
                    <mxGeometry x="572" y="351" width="120" height="41" as="geometry"/>
                </mxCell>
                <mxCell id="103" value="&lt;font&gt;&lt;span&gt;Order&lt;/span&gt;&lt;/font&gt;" style="text;html=1;align=center;verticalAlign=middle;resizable=0;points=[];autosize=1;strokeColor=none;fillColor=none;fontSize=20;fontStyle=0;fontColor=#000000;" parent="1" vertex="1">
                    <mxGeometry x="187.5" y="165" width="70" height="40" as="geometry"/>
                </mxCell>
                <mxCell id="107" value="&lt;font&gt;&lt;u&gt;Email&lt;/u&gt;&lt;/font&gt;" style="html=1;overflow=block;blockSpacing=1;whiteSpace=wrap;fontSize=20;spacing=9;strokeOpacity=100;rounded=1;absoluteArcSize=1;arcSize=9;strokeWidth=NaN;lucidId=.CLh_E8dGPJD;shadow=1;fontStyle=0;fontColor=#000000;" parent="1" vertex="1">
                    <mxGeometry x="350" y="97" width="130" height="40" as="geometry"/>
                </mxCell>
                <mxCell id="108" value="&lt;font&gt;password&lt;/font&gt;" style="html=1;overflow=block;blockSpacing=1;whiteSpace=wrap;fontSize=20;spacing=9;strokeOpacity=100;rounded=1;absoluteArcSize=1;arcSize=9;strokeWidth=NaN;lucidId=.CLh_E8dGPJD;shadow=1;fontStyle=0;fontColor=#000000;" parent="1" vertex="1">
                    <mxGeometry x="480" y="97" width="120" height="40" as="geometry"/>
                </mxCell>
                <mxCell id="109" value="&lt;span style=&quot;text-decoration-line: underline;&quot;&gt;ID&lt;/span&gt;" style="html=1;overflow=block;blockSpacing=1;whiteSpace=wrap;fontSize=20;spacing=9;strokeOpacity=100;rounded=1;absoluteArcSize=1;arcSize=9;strokeWidth=NaN;lucidId=.CLh_E8dGPJD;shadow=1;fontStyle=0;fontColor=#000000;" parent="1" vertex="1">
                    <mxGeometry x="-135" y="97" width="120" height="41" as="geometry"/>
                </mxCell>
                <mxCell id="110" value="&lt;span style=&quot;&quot;&gt;FName&lt;/span&gt;" style="html=1;overflow=block;blockSpacing=1;whiteSpace=wrap;fontSize=20;spacing=9;strokeOpacity=100;rounded=1;absoluteArcSize=1;arcSize=9;strokeWidth=NaN;lucidId=.CLh_E8dGPJD;shadow=1;fontStyle=0;fontColor=#000000;" parent="1" vertex="1">
                    <mxGeometry x="-15" y="97" width="120" height="41" as="geometry"/>
                </mxCell>
                <mxCell id="111" value="&lt;font&gt;&lt;span&gt;User&lt;/span&gt;&lt;/font&gt;" style="text;html=1;align=center;verticalAlign=middle;resizable=0;points=[];autosize=1;strokeColor=none;fillColor=none;fontSize=20;fontStyle=0;fontColor=#000000;" parent="1" vertex="1">
                    <mxGeometry x="-110" y="60" width="70" height="40" as="geometry"/>
                </mxCell>
                <mxCell id="112" value="&lt;span style=&quot;&quot;&gt;LName&lt;/span&gt;" style="html=1;overflow=block;blockSpacing=1;whiteSpace=wrap;fontSize=20;spacing=9;strokeOpacity=100;rounded=1;absoluteArcSize=1;arcSize=9;strokeWidth=NaN;lucidId=.CLh_E8dGPJD;shadow=1;fontStyle=0;fontColor=#000000;" parent="1" vertex="1">
                    <mxGeometry x="108" y="97" width="120" height="41" as="geometry"/>
                </mxCell>
                <mxCell id="114" value="&lt;span style=&quot;&quot;&gt;&lt;u&gt;UserName&lt;/u&gt;&lt;/span&gt;" style="html=1;overflow=block;blockSpacing=1;whiteSpace=wrap;fontSize=20;spacing=9;strokeOpacity=100;rounded=1;absoluteArcSize=1;arcSize=9;strokeWidth=NaN;lucidId=.CLh_E8dGPJD;shadow=1;fontStyle=0;fontColor=#000000;" parent="1" vertex="1">
                    <mxGeometry x="228" y="97" width="120" height="41" as="geometry"/>
                </mxCell>
                <mxCell id="117" value="Img" style="html=1;overflow=block;blockSpacing=1;whiteSpace=wrap;fontSize=20;spacing=9;strokeOpacity=100;rounded=1;absoluteArcSize=1;arcSize=9;strokeWidth=NaN;lucidId=.CLh_E8dGPJD;shadow=1;fontStyle=0;fontColor=#000000;" parent="1" vertex="1">
                    <mxGeometry x="600" y="97" width="130" height="40" as="geometry"/>
                </mxCell>
                <mxCell id="118" value="&lt;font&gt;gender&lt;/font&gt;" style="html=1;overflow=block;blockSpacing=1;whiteSpace=wrap;fontSize=20;spacing=9;strokeOpacity=100;rounded=1;absoluteArcSize=1;arcSize=9;strokeWidth=NaN;lucidId=.CLh_E8dGPJD;shadow=1;fontStyle=0;fontColor=#000000;" parent="1" vertex="1">
                    <mxGeometry x="730" y="97" width="120" height="40" as="geometry"/>
                </mxCell>
                <mxCell id="120" style="edgeStyle=none;html=1;exitX=0.5;exitY=0;exitDx=0;exitDy=0;entryX=0.5;entryY=1;entryDx=0;entryDy=0;fontSize=20;fontStyle=0;fontColor=#000000;" parent="1" source="119" target="109" edge="1">
                    <mxGeometry relative="1" as="geometry">
                        <mxPoint x="510" y="80" as="targetPoint"/>
                    </mxGeometry>
                </mxCell>
                <mxCell id="119" value="User_ID" style="html=1;overflow=block;blockSpacing=1;whiteSpace=wrap;fontSize=20;spacing=9;strokeOpacity=100;rounded=1;absoluteArcSize=1;arcSize=9;strokeWidth=NaN;lucidId=.CLh_E8dGPJD;shadow=1;fontStyle=0;fontColor=#000000;" parent="1" vertex="1">
                    <mxGeometry x="677.5" y="205" width="120" height="45" as="geometry"/>
                </mxCell>
                <mxCell id="128" value="&lt;u&gt;ID&lt;/u&gt;" style="html=1;overflow=block;blockSpacing=1;whiteSpace=wrap;fontSize=20;spacing=9;strokeOpacity=100;rounded=1;absoluteArcSize=1;arcSize=9;strokeWidth=NaN;lucidId=.CLh_E8dGPJD;shadow=1;fontStyle=0;fontColor=#000000;" parent="1" vertex="1">
                    <mxGeometry x="357" y="592" width="120" height="45" as="geometry"/>
                </mxCell>
                <mxCell id="129" value="Name" style="html=1;overflow=block;blockSpacing=1;whiteSpace=wrap;fontSize=20;spacing=9;strokeOpacity=100;rounded=1;absoluteArcSize=1;arcSize=9;strokeWidth=NaN;lucidId=.CLh_E8dGPJD;shadow=1;fontStyle=0;fontColor=#000000;" parent="1" vertex="1">
                    <mxGeometry x="477" y="592" width="120" height="45" as="geometry"/>
                </mxCell>
                <mxCell id="134" value="&lt;span&gt;&lt;font&gt;Category&lt;/font&gt;&lt;/span&gt;" style="text;html=1;align=center;verticalAlign=middle;resizable=0;points=[];autosize=1;strokeColor=none;fillColor=none;fontSize=20;fontStyle=0;fontColor=#000000;" parent="1" vertex="1">
                    <mxGeometry x="367" y="550" width="100" height="40" as="geometry"/>
                </mxCell>
                <mxCell id="136" value="&lt;span style=&quot;&quot;&gt;Discout_Amount&lt;/span&gt;" style="html=1;overflow=block;blockSpacing=1;whiteSpace=wrap;fontSize=20;spacing=9;strokeOpacity=100;rounded=1;absoluteArcSize=1;arcSize=9;strokeWidth=NaN;lucidId=.CLh_E8dGPJD;shadow=1;fontStyle=0;fontColor=#000000;" vertex="1" parent="1">
                    <mxGeometry x="-120" y="592" width="160" height="40" as="geometry"/>
                </mxCell>
                <mxCell id="137" value="&lt;span style=&quot;text-decoration-line: underline;&quot;&gt;ID&lt;/span&gt;" style="html=1;overflow=block;blockSpacing=1;whiteSpace=wrap;fontSize=20;spacing=9;strokeOpacity=100;rounded=1;absoluteArcSize=1;arcSize=9;strokeWidth=NaN;lucidId=.CLh_E8dGPJD;shadow=1;fontStyle=0;fontColor=#000000;" vertex="1" parent="1">
                    <mxGeometry x="-136" y="487" width="120" height="41" as="geometry"/>
                </mxCell>
                <mxCell id="138" value="&lt;span style=&quot;&quot;&gt;Name&lt;/span&gt;" style="html=1;overflow=block;blockSpacing=1;whiteSpace=wrap;fontSize=20;spacing=9;strokeOpacity=100;rounded=1;absoluteArcSize=1;arcSize=9;strokeWidth=NaN;lucidId=.CLh_E8dGPJD;shadow=1;fontStyle=0;fontColor=#000000;" vertex="1" parent="1">
                    <mxGeometry x="-16" y="487" width="120" height="41" as="geometry"/>
                </mxCell>
                <mxCell id="139" value="&lt;font&gt;&lt;span&gt;Product&lt;/span&gt;&lt;/font&gt;" style="text;html=1;align=center;verticalAlign=middle;resizable=0;points=[];autosize=1;strokeColor=none;fillColor=none;fontSize=20;fontStyle=0;fontColor=#000000;" vertex="1" parent="1">
                    <mxGeometry x="-121" y="450" width="90" height="40" as="geometry"/>
                </mxCell>
                <mxCell id="140" value="&lt;span style=&quot;&quot;&gt;Price&lt;/span&gt;" style="html=1;overflow=block;blockSpacing=1;whiteSpace=wrap;fontSize=20;spacing=9;strokeOpacity=100;rounded=1;absoluteArcSize=1;arcSize=9;strokeWidth=NaN;lucidId=.CLh_E8dGPJD;shadow=1;fontStyle=0;fontColor=#000000;" vertex="1" parent="1">
                    <mxGeometry x="107" y="487" width="120" height="41" as="geometry"/>
                </mxCell>
                <mxCell id="141" value="&lt;span style=&quot;&quot;&gt;Quantity&lt;/span&gt;" style="html=1;overflow=block;blockSpacing=1;whiteSpace=wrap;fontSize=20;spacing=9;strokeOpacity=100;rounded=1;absoluteArcSize=1;arcSize=9;strokeWidth=NaN;lucidId=.CLh_E8dGPJD;shadow=1;fontStyle=0;fontColor=#000000;" vertex="1" parent="1">
                    <mxGeometry x="227" y="487" width="120" height="41" as="geometry"/>
                </mxCell>
                <mxCell id="142" value="&lt;span style=&quot;white-space-collapse: preserve;&quot;&gt;Discount_Expire&lt;/span&gt;" style="html=1;overflow=block;blockSpacing=1;whiteSpace=wrap;fontSize=20;spacing=9;strokeOpacity=100;rounded=1;absoluteArcSize=1;arcSize=9;strokeWidth=NaN;lucidId=.CLh_E8dGPJD;shadow=1;fontStyle=0;fontColor=#000000;" vertex="1" parent="1">
                    <mxGeometry x="40" y="592" width="170" height="40" as="geometry"/>
                </mxCell>
                <mxCell id="147" style="edgeStyle=none;html=1;exitX=0.5;exitY=0;exitDx=0;exitDy=0;entryX=0.25;entryY=1;entryDx=0;entryDy=0;fontSize=20;fontStyle=0;fontColor=#000000;" edge="1" parent="1" source="143" target="91">
                    <mxGeometry relative="1" as="geometry"/>
                </mxCell>
                <mxCell id="143" value="&lt;font&gt;Admin_ID&lt;/font&gt;" style="html=1;overflow=block;blockSpacing=1;whiteSpace=wrap;fontSize=20;spacing=9;strokeOpacity=100;rounded=1;absoluteArcSize=1;arcSize=9;strokeWidth=NaN;lucidId=.CLh_E8dGPJD;shadow=1;fontStyle=0;fontColor=#000000;" vertex="1" parent="1">
                    <mxGeometry x="348" y="487" width="120" height="40" as="geometry"/>
                </mxCell>
                <mxCell id="150" style="edgeStyle=none;html=1;exitX=0.5;exitY=1;exitDx=0;exitDy=0;entryX=0.75;entryY=0;entryDx=0;entryDy=0;fontSize=20;fontStyle=0;fontColor=#000000;" edge="1" parent="1" source="149" target="128">
                    <mxGeometry relative="1" as="geometry"/>
                </mxCell>
                <mxCell id="149" value="&lt;font&gt;Category_ID&lt;/font&gt;" style="html=1;overflow=block;blockSpacing=1;whiteSpace=wrap;fontSize=20;spacing=9;strokeOpacity=100;rounded=1;absoluteArcSize=1;arcSize=9;strokeWidth=NaN;lucidId=.CLh_E8dGPJD;shadow=1;fontStyle=0;fontColor=#000000;" vertex="1" parent="1">
                    <mxGeometry x="468" y="487" width="120" height="40" as="geometry"/>
                </mxCell>
                <mxCell id="154" style="edgeStyle=none;html=1;exitX=0.5;exitY=0;exitDx=0;exitDy=0;entryX=0.5;entryY=1;entryDx=0;entryDy=0;fontSize=20;fontStyle=0;fontColor=#000000;" edge="1" parent="1" source="151" target="71">
                    <mxGeometry relative="1" as="geometry"/>
                </mxCell>
                <mxCell id="151" value="Order_ID" style="html=1;overflow=block;blockSpacing=1;whiteSpace=wrap;fontSize=20;spacing=9;strokeOpacity=100;rounded=1;absoluteArcSize=1;arcSize=9;strokeWidth=NaN;lucidId=.CLh_E8dGPJD;shadow=1;fontStyle=0;fontColor=#000000;" vertex="1" parent="1">
                    <mxGeometry x="-51" y="352" width="120" height="45" as="geometry"/>
                </mxCell>
                <mxCell id="152" value="Product_ID" style="html=1;overflow=block;blockSpacing=1;whiteSpace=wrap;fontSize=20;spacing=9;strokeOpacity=100;rounded=1;absoluteArcSize=1;arcSize=9;strokeWidth=NaN;lucidId=.CLh_E8dGPJD;shadow=1;fontStyle=0;fontColor=#000000;" vertex="1" parent="1">
                    <mxGeometry x="69" y="352" width="120" height="45" as="geometry"/>
                </mxCell>
                <mxCell id="153" value="Amount" style="html=1;overflow=block;blockSpacing=1;whiteSpace=wrap;fontSize=20;spacing=9;strokeOpacity=100;rounded=1;absoluteArcSize=1;arcSize=9;strokeWidth=NaN;lucidId=.CLh_E8dGPJD;shadow=1;fontStyle=0;fontColor=#000000;" vertex="1" parent="1">
                    <mxGeometry x="189" y="352" width="120" height="45" as="geometry"/>
                </mxCell>
                <mxCell id="155" style="edgeStyle=none;html=1;exitX=0.5;exitY=1;exitDx=0;exitDy=0;entryX=0.942;entryY=1.069;entryDx=0;entryDy=0;entryPerimeter=0;fontSize=20;fontStyle=0;fontColor=#000000;" edge="1" parent="1" source="152" target="139">
                    <mxGeometry relative="1" as="geometry"/>
                </mxCell>
                <mxCell id="156" value="&lt;font&gt;&lt;span&gt;OrderList&lt;/span&gt;&lt;/font&gt;" style="text;html=1;align=center;verticalAlign=middle;resizable=0;points=[];autosize=1;strokeColor=none;fillColor=none;fontSize=20;fontStyle=0;fontColor=#000000;" vertex="1" parent="1">
                    <mxGeometry x="-90" y="305" width="110" height="40" as="geometry"/>
                </mxCell>
                <mxCell id="171" style="edgeStyle=none;html=1;exitX=0.75;exitY=0;exitDx=0;exitDy=0;entryX=0.36;entryY=0.985;entryDx=0;entryDy=0;entryPerimeter=0;fontSize=20;fontStyle=0;fontColor=#000000;" edge="1" parent="1" source="167" target="109">
                    <mxGeometry relative="1" as="geometry">
                        <mxPoint x="25" y="150" as="targetPoint"/>
                    </mxGeometry>
                </mxCell>
                <mxCell id="167" value="&lt;u&gt;User_ID&lt;/u&gt;" style="html=1;overflow=block;blockSpacing=1;whiteSpace=wrap;fontSize=20;spacing=9;strokeOpacity=100;rounded=1;absoluteArcSize=1;arcSize=9;strokeWidth=NaN;lucidId=.CLh_E8dGPJD;shadow=1;fontStyle=0;fontColor=#000000;" vertex="1" parent="1">
                    <mxGeometry x="-256" y="220" width="120" height="45" as="geometry"/>
                </mxCell>
                <mxCell id="172" style="edgeStyle=none;html=1;entryX=0.034;entryY=0.954;entryDx=0;entryDy=0;entryPerimeter=0;fontSize=20;fontStyle=0;fontColor=#000000;" edge="1" parent="1" source="168" target="139">
                    <mxGeometry relative="1" as="geometry"/>
                </mxCell>
                <mxCell id="168" value="&lt;u&gt;Product_ID&lt;/u&gt;" style="html=1;overflow=block;blockSpacing=1;whiteSpace=wrap;fontSize=20;spacing=9;strokeOpacity=100;rounded=1;absoluteArcSize=1;arcSize=9;strokeWidth=NaN;lucidId=.CLh_E8dGPJD;shadow=1;fontStyle=0;fontColor=#000000;" vertex="1" parent="1">
                    <mxGeometry x="-136" y="220" width="120" height="45" as="geometry"/>
                </mxCell>
                <mxCell id="169" value="Amount" style="html=1;overflow=block;blockSpacing=1;whiteSpace=wrap;fontSize=20;spacing=9;strokeOpacity=100;rounded=1;absoluteArcSize=1;arcSize=9;strokeWidth=NaN;lucidId=.CLh_E8dGPJD;shadow=1;fontStyle=0;fontColor=#000000;" vertex="1" parent="1">
                    <mxGeometry x="-16" y="220" width="120" height="45" as="geometry"/>
                </mxCell>
                <mxCell id="170" value="&lt;font&gt;&lt;span&gt;Cart_Items&lt;/span&gt;&lt;/font&gt;" style="text;html=1;align=center;verticalAlign=middle;resizable=0;points=[];autosize=1;strokeColor=none;fillColor=none;fontSize=20;fontStyle=0;fontColor=#000000;" vertex="1" parent="1">
                    <mxGeometry x="-281" y="180" width="120" height="40" as="geometry"/>
                </mxCell>
                <mxCell id="182" style="edgeStyle=none;html=1;exitX=0.5;exitY=0;exitDx=0;exitDy=0;fontSize=20;fontStyle=0;fontColor=#000000;" edge="1" parent="1" source="181">
                    <mxGeometry relative="1" as="geometry">
                        <mxPoint x="-80" y="530" as="targetPoint"/>
                    </mxGeometry>
                </mxCell>
                <mxCell id="181" value="Product_ID" style="html=1;overflow=block;blockSpacing=1;whiteSpace=wrap;fontSize=20;spacing=9;strokeOpacity=100;rounded=1;absoluteArcSize=1;arcSize=9;strokeWidth=NaN;lucidId=.CLh_E8dGPJD;shadow=1;fontStyle=0;fontColor=#000000;" vertex="1" parent="1">
                    <mxGeometry x="210" y="592" width="120" height="38" as="geometry"/>
                </mxCell>
                <mxCell id="184" value="&lt;span&gt;&lt;span&gt;Discount&lt;/span&gt;&lt;/span&gt;" style="text;html=1;align=center;verticalAlign=middle;resizable=0;points=[];autosize=1;strokeColor=none;fillColor=none;fontSize=20;fontStyle=0;fontColor=#000000;" vertex="1" parent="1">
                    <mxGeometry x="-80" y="552" width="100" height="40" as="geometry"/>
                </mxCell>
            </root>
        </mxGraphModel>
    </diagram>
</mxfile>